<?xml version="1.0" encoding="UTF-8"?>
<svg id="Layer_1" data-name="Layer 1" xmlns="http://www.w3.org/2000/svg" xmlns:xlink="http://www.w3.org/1999/xlink" version="1.1" viewBox="0 0 119.96 23.18">
  <defs>
    <style>
      .cls-1 {
        fill: #04c1d6;
      }

      .cls-1, .cls-2, .cls-3, .cls-4, .cls-5, .cls-6, .cls-7 {
        stroke-width: 0px;
      }

      .cls-2 {
        fill: url(#linear-gradient);
      }

      .cls-3 {
        fill: url(#linear-gradient-4);
      }

      .cls-4 {
        fill: url(#linear-gradient-2);
      }

      .cls-5 {
        fill: url(#linear-gradient-3);
      }

      .cls-6 {
        fill: url(#linear-gradient-5);
      }

      .cls-7 {
        fill: url(#linear-gradient-6);
      }
    </style>
    <linearGradient id="linear-gradient" x1="11.15" y1="33.07" x2=".87" y2="43.36" gradientTransform="translate(5.15 53.54) rotate(-5) scale(1 -1)" gradientUnits="userSpaceOnUse">
      <stop offset=".51" stop-color="#013a60"/>
      <stop offset=".58" stop-color="#014368"/>
      <stop offset=".69" stop-color="#015d7f"/>
      <stop offset=".83" stop-color="#0287a4"/>
      <stop offset="1" stop-color="#04c1d6"/>
    </linearGradient>
    <linearGradient id="linear-gradient-2" x1="6.17" y1="31" x2="6.17" y2="47.68" gradientTransform="translate(5.15 53.54) rotate(-5) scale(1 -1)" gradientUnits="userSpaceOnUse">
      <stop offset="0" stop-color="#013a60"/>
      <stop offset=".06" stop-color="#014368"/>
      <stop offset=".15" stop-color="#015d7f"/>
      <stop offset=".27" stop-color="#0287a4"/>
      <stop offset=".41" stop-color="#04c1d6"/>
    </linearGradient>
    <linearGradient id="linear-gradient-3" x1="-550.01" y1="-42.48" x2="-560.31" y2="-32.18" gradientTransform="translate(-529.33 -70.64) rotate(-175)" gradientUnits="userSpaceOnUse">
      <stop offset=".51" stop-color="#013a60"/>
      <stop offset=".58" stop-color="#014368"/>
      <stop offset=".69" stop-color="#015d7f"/>
      <stop offset=".83" stop-color="#0287a4"/>
      <stop offset="1" stop-color="#04c1d6"/>
    </linearGradient>
    <linearGradient id="linear-gradient-4" x1="-555.01" y1="-44.56" x2="-555.01" y2="-27.88" gradientTransform="translate(-529.33 -70.64) rotate(-175)" gradientUnits="userSpaceOnUse">
      <stop offset="0" stop-color="#013a60"/>
      <stop offset=".06" stop-color="#014368"/>
      <stop offset=".15" stop-color="#015d7f"/>
      <stop offset=".27" stop-color="#0287a4"/>
      <stop offset=".41" stop-color="#04c1d6"/>
    </linearGradient>
    <linearGradient id="linear-gradient-5" x1="6.95" y1="14.91" x2="21.16" y2="14.91" gradientTransform="translate(0 21.88) scale(1 -1)" gradientUnits="userSpaceOnUse">
      <stop offset=".41" stop-color="#013a60"/>
      <stop offset="1" stop-color="#04c1d6"/>
    </linearGradient>
    <linearGradient id="linear-gradient-6" x1="21.35" y1="14.8" x2="7.14" y2="14.8" gradientTransform="translate(0 21.88) scale(1 -1)" gradientUnits="userSpaceOnUse">
      <stop offset=".41" stop-color="#013a60"/>
      <stop offset="1" stop-color="#04c1d6"/>
    </linearGradient>
  </defs>
  <g>
    <g>
      <path class="cls-2" d="M4.63,7.82s-2.55,1.76-2.84,4.16c-.3,2.4,1.62,3.79,2.47,4.4.85.62,7.24,5.49,7.24,5.49l.45-1.14-.83-2.32-3.58-3.38-3.33-4.28.42-2.92h0Z"/>
      <path class="cls-4" d="M6.48,5.57s-1.67,1.74-1.22,3.93c.32,1.6.92,2.05,2.22,3.07,1.3,1.02,2.72,1.94,3.45,2.6s3.41,3.43.59,6.7c0-2.36-2.14-3.92-3.24-4.73,0,0-2.4-1.52-3.35-2.54-.95-1.02-2.98-3.42-.89-6.44.58-.73,2.44-2.58,2.44-2.58h0Z"/>
    </g>
    <g>
      <path class="cls-5" d="M23.64,7.82s2.55,1.76,2.84,4.16c.3,2.4-1.62,3.79-2.47,4.4-.85.62-7.24,5.49-7.24,5.49l-.45-1.14.83-2.32,3.58-3.38,3.33-4.28-.42-2.92h0Z"/>
      <path class="cls-3" d="M21.8,5.57s1.67,1.74,1.22,3.93c-.32,1.6-.92,2.05-2.22,3.07-1.3,1.02-2.72,1.94-3.45,2.6-.73.66-3.41,3.43-.59,6.7,0-2.36,2.14-3.92,3.24-4.73,0,0,2.4-1.52,3.35-2.54.95-1.02,2.98-3.42.89-6.44-.58-.73-2.44-2.58-2.44-2.58h0Z"/>
    </g>
    <path class="cls-6" d="M6.95,11.87c.6,0,.98-.11,1.16-.32.18-.21.27-.52.27-.93V3.18c0-.43-.1-.71-.31-.84-.2-.13-.57-.22-1.09-.26v-.4h3.95l3.08,7.25h.13l3.07-7.25h3.95v.4c-.53.04-.89.14-1.09.29-.19.15-.29.53-.29,1.14v6.93c0,.58.1.95.29,1.13.19.18.56.28,1.09.3v.4h-5.2v-.4c.46-.02.81-.09,1.05-.23.23-.14.35-.45.35-.92V3.06h-.11l-3.84,9.21h-.42l-3.88-9.03h-.07v7.08c0,.52.1.9.29,1.15.19.24.62.37,1.29.4v.4h-3.66v-.4h-.01Z"/>
    <path class="cls-7" d="M7.14,11.98c.6,0,.98-.11,1.16-.32.18-.21.27-.52.27-.93V3.29c0-.43-.1-.71-.31-.84-.2-.13-.57-.22-1.09-.26v-.4h3.95l3.08,7.25h.13l3.07-7.25h3.95v.4c-.53.04-.89.14-1.09.29-.19.15-.29.53-.29,1.14v6.93c0,.58.1.95.29,1.13.19.18.56.28,1.09.3v.4h-5.2v-.4c.46-.02.81-.09,1.05-.23.23-.14.35-.45.35-.92V3.17h-.11l-3.84,9.21h-.42l-3.88-9.03h-.07v7.08c0,.52.1.9.29,1.15.19.24.62.37,1.29.4v.4h-3.66v-.4h-.01Z"/>
  </g>
  <g>
    <path class="cls-1" d="M29.93,15.28c.34-.04.58-.12.71-.22.21-.16.31-.47.31-.92v-5.51c0-.39-.07-.66-.21-.8s-.41-.24-.81-.29v-.45h3.55v1.35c.31-.41.61-.73.91-.95.54-.41,1.15-.61,1.81-.61.75,0,1.33.18,1.75.53.23.2.45.53.66.99h.13c.35-.43.69-.76,1.02-.98.51-.36,1.07-.54,1.68-.54.66,0,1.24.21,1.74.63.5.42.76,1.09.76,2v4.72c0,.43.07.71.21.83s.39.2.74.23v.45h-4.45v-.45c.34-.05.58-.13.71-.25s.2-.39.2-.81v-4.54c0-.49-.07-.87-.22-1.14-.14-.27-.42-.4-.82-.4-.32,0-.66.15-1.02.44-.36.3-.54.5-.54.62v5.02c0,.41.06.67.18.79s.35.21.69.27v.45h-4.39v-.45c.33-.04.56-.12.71-.24.14-.12.21-.39.21-.82v-4.54c0-.48-.07-.85-.2-1.13-.13-.27-.41-.41-.83-.41-.38,0-.74.16-1.07.47s-.49.51-.49.59v5.02c0,.41.06.67.17.79.12.12.34.21.69.27v.45h-4.49v-.45h0Z"/>
    <path class="cls-1" d="M46.94,11.97c.81-.5,2.08-.99,3.82-1.5v-1.36c0-.56-.12-.97-.35-1.23-.24-.27-.65-.4-1.25-.4-.34,0-.61.06-.83.19-.22.13-.33.28-.33.47,0,.07,0,.13.04.18.02.05.06.1.11.16l.11.13c.09.1.15.22.21.34.05.13.08.26.08.4,0,.35-.12.63-.35.82-.23.19-.51.29-.82.29-.36,0-.67-.11-.92-.32s-.38-.52-.38-.92c0-.72.34-1.29,1.02-1.71.68-.42,1.51-.63,2.5-.63,1.06,0,1.95.2,2.66.61.71.42,1.06,1.18,1.06,2.29v4.54c0,.13.04.25.11.34s.15.14.23.14c.07,0,.14-.01.2-.04s.15-.1.27-.22l.28.39c-.37.43-.77.73-1.22.9-.28.11-.58.16-.89.16-.56,0-.96-.16-1.22-.49-.15-.18-.25-.46-.32-.82-.52.52-1.1.89-1.76,1.1-.4.13-.79.2-1.17.2-.51,0-.99-.16-1.44-.49-.45-.33-.67-.84-.67-1.53,0-.84.41-1.51,1.22-2.01v.02ZM50.21,14.38c.15-.11.32-.28.52-.51v-2.74c-.5.12-.94.32-1.32.58-.64.45-.96,1.02-.96,1.71,0,.41.09.72.28.93s.4.32.63.32c.31,0,.59-.09.85-.28h0Z"/>
    <path class="cls-1" d="M54.93,15.28c.33-.08.56-.18.7-.32.14-.13.21-.4.21-.82V4.58c0-.4-.06-.66-.19-.78s-.37-.22-.71-.3v-.45h3.52v8.08l2.38-2.39c.14-.14.24-.27.3-.4s.09-.22.09-.3c0-.19-.08-.31-.25-.38-.17-.06-.45-.11-.86-.15v-.43h4.02v.43c-.38.05-.69.12-.92.2-.4.16-.79.43-1.17.81l-1.46,1.47,3.63,4.99c.07.1.14.17.21.21.07.03.16.06.27.08v.45h-4.38v-.45c.27-.01.47-.05.59-.1.13-.05.19-.14.19-.26,0-.06-.03-.14-.08-.25s-.18-.3-.38-.59l-1.78-2.52-.41.46v2.12c0,.42.05.7.16.84.1.14.37.24.8.29v.45h-4.47v-.45.02Z"/>
    <path class="cls-1" d="M66.62,8.07c.77-.8,1.69-1.19,2.77-1.19.62,0,1.2.16,1.74.49.54.32.96.77,1.26,1.35.22.43.37.99.46,1.68.04.32.06.57.06.74h-4.79c.04.75.17,1.4.37,1.95.37,1.03,1.01,1.55,1.94,1.55.44,0,.86-.14,1.25-.41.24-.16.54-.44.89-.83l.43.27c-.58.95-1.25,1.61-2.02,1.99-.49.24-1.06.36-1.71.36-.92,0-1.79-.36-2.59-1.09-.81-.73-1.21-1.89-1.21-3.48,0-1.44.38-2.56,1.15-3.36v-.02ZM70.6,10.44c0-1.1-.1-1.88-.26-2.32s-.48-.66-.96-.66-.83.25-1.01.76-.28,1.25-.31,2.22h2.54Z"/>
    <path class="cls-1" d="M73.68,15.28c.33-.05.56-.14.68-.25.18-.16.27-.46.27-.89v-5.51c0-.38-.06-.64-.19-.78s-.38-.24-.76-.31v-.45h3.6v7.12c0,.41.06.67.18.79s.35.21.69.27v.45h-4.47v-.45h0ZM74.93,3.2c.28-.28.63-.43,1.03-.43s.74.14,1.02.43c.28.28.43.63.43,1.03s-.14.75-.43,1.03c-.28.28-.62.43-1.02.43s-.75-.14-1.03-.43c-.28-.28-.43-.63-.43-1.03s.14-.75.43-1.03Z"/>
    <path class="cls-1" d="M78.89,7.92v-.52c.16-.15.37-.33.61-.54.32-.3.63-.61.92-.92.57-.62,1.08-1.29,1.55-2.01h.48v3.17h1.79v.82h-1.79v5.64c0,.26.04.48.12.66.12.27.32.41.6.41.24,0,.45-.09.61-.26.16-.17.33-.41.49-.72l.45.22c-.22.51-.48.93-.79,1.25-.54.57-1.19.85-1.97.85-.44,0-.82-.08-1.15-.25-.63-.32-.95-.89-.96-1.73v-6.08h-.97,0Z"/>
    <path class="cls-1" d="M90,12.89h.52c.18.9.52,1.53,1.03,1.9.5.37,1.01.55,1.54.55.48,0,.84-.11,1.06-.33.23-.22.34-.5.34-.86,0-.34-.12-.62-.37-.86-.13-.13-.35-.27-.65-.41l-1.39-.68c-.73-.36-1.26-.75-1.57-1.17-.32-.42-.49-.92-.49-1.49,0-.73.25-1.35.76-1.88.51-.53,1.21-.79,2.12-.79.4,0,.82.07,1.26.2.45.13.72.2.83.2.15,0,.26-.03.33-.1.06-.06.12-.15.16-.27h.41v2.71h-.48c-.18-.63-.47-1.14-.87-1.53-.4-.38-.87-.58-1.41-.58-.42,0-.72.12-.93.35-.2.23-.31.48-.31.75,0,.22.09.44.27.66.18.23.51.46,1.01.7l1.03.49c.63.31,1.1.6,1.39.89.49.49.73,1.09.73,1.8s-.25,1.34-.76,1.95c-.5.6-1.26.9-2.27.9-.25,0-.5-.03-.76-.08-.25-.05-.57-.14-.94-.27l-.32-.11c-.12-.04-.19-.07-.22-.07h-.11c-.1,0-.19.04-.27.12s-.16.22-.26.42h-.45v-3.1h.04Z"/>
    <path class="cls-1" d="M98.43,8.17c.8-.87,1.81-1.31,3.03-1.31s2.25.45,3.04,1.34,1.19,1.97,1.19,3.24-.39,2.33-1.17,3.23-1.8,1.35-3.06,1.35-2.23-.44-3.03-1.31c-.8-.88-1.2-1.96-1.2-3.26s.4-2.4,1.2-3.27h0ZM100.19,14.19c.21.81.64,1.22,1.27,1.22s1-.31,1.19-.93.28-1.64.28-3.04-.1-2.41-.3-3.04c-.2-.63-.59-.94-1.17-.94-.63,0-1.06.41-1.27,1.22-.14.54-.21,1.46-.21,2.76s.07,2.23.2,2.76h0Z"/>
    <path class="cls-1" d="M106.45,15.28c.38-.03.66-.12.83-.26.17-.14.25-.43.25-.88v-6.1h-1.08v-.82h1.08v-.7c0-.87.14-1.59.41-2.15.52-1.05,1.48-1.57,2.87-1.57.74,0,1.37.17,1.89.51.52.34.77.79.77,1.34,0,.35-.11.63-.32.84-.22.21-.51.32-.87.32-.3,0-.56-.1-.77-.29-.21-.2-.32-.43-.32-.71,0-.21.07-.43.21-.65.14-.23.21-.37.21-.42,0-.15-.05-.25-.16-.29-.11-.04-.23-.06-.36-.06-.31,0-.54.09-.7.27s-.25.56-.25,1.14v2.43h1.63v.82h-1.63v5.76c0,.65.09,1.04.28,1.19s.6.24,1.24.28v.45h-5.21v-.45h0Z"/>
    <path class="cls-1" d="M112.74,7.92v-.52c.16-.15.37-.33.61-.54.32-.3.63-.61.92-.92.57-.62,1.08-1.29,1.55-2.01h.48v3.17h1.79v.82h-1.79v5.64c0,.26.04.48.12.66.12.27.32.41.6.41.24,0,.45-.09.61-.26.16-.17.33-.41.49-.72l.45.22c-.22.51-.48.93-.79,1.25-.54.57-1.19.85-1.97.85-.44,0-.82-.08-1.15-.25-.63-.32-.95-.89-.96-1.73v-6.08h-.97.01Z"/>
  </g>
</svg>